<svg width="100" height="28" viewBox="0 0 100 28" fill="none" xmlns="http://www.w3.org/2000/svg">
<path d="M4.70536 10.0961C10.5231 5.94667 17.6239 11.8927 14.1161 18.6516L26.5485 8.8043C27.137 10.3341 27.4633 11.9945 27.4633 13.7317C27.4633 21.3155 21.3155 27.4633 13.7317 27.4633C9.10994 27.4633 5.02461 25.1778 2.53595 21.6777C0.643894 18.1469 0.463235 13.7865 4.70536 10.0961Z" fill="#1641FE"/>
<path d="M13.7317 0C17.0314 0 20.0593 1.16397 22.4272 3.10363L9.02631 7.01633C6.12688 7.58806 0.540164 9.87447 0.187738 15.9979C0.06528 15.2606 0 14.5037 0 13.7317C0 6.14788 6.14788 0 13.7317 0Z" fill="#1641FE"/>
<path d="M100 6.97314V20.2887H97.5879V6.97314H100Z" fill="#1641FE"/>
<path d="M86.0488 20.2887H83.4741L88.1619 6.97314H91.1397L95.8339 20.2887H93.2592L89.7028 9.70388H89.5988L86.0488 20.2887ZM86.1333 15.0678H93.1552V17.0053H86.1333V15.0678Z" fill="#1641FE"/>
<path d="M72.0538 20.4899C71.421 20.4899 70.851 20.3772 70.3438 20.1518C69.841 19.9221 69.4423 19.584 69.1475 19.1375C68.8571 18.6911 68.7119 18.1406 68.7119 17.4861C68.7119 16.9226 68.8159 16.4566 69.024 16.0882C69.2321 15.7198 69.516 15.425 69.8757 15.204C70.2355 14.9829 70.6408 14.816 71.0915 14.7033C71.5467 14.5863 72.017 14.5018 72.5024 14.4498C73.0876 14.3891 73.5622 14.3349 73.9263 14.2872C74.2904 14.2352 74.5548 14.1572 74.7195 14.0532C74.8886 13.9448 74.9731 13.7779 74.9731 13.5525V13.5135C74.9731 13.0237 74.8279 12.6445 74.5375 12.3757C74.2471 12.107 73.8288 11.9726 73.2826 11.9726C72.7061 11.9726 72.2489 12.0983 71.9108 12.3497C71.577 12.6011 71.3516 12.898 71.2346 13.2405L69.037 12.9284C69.2104 12.3215 69.4965 11.8144 69.8952 11.407C70.294 10.9952 70.7816 10.6874 71.3581 10.4837C71.9346 10.2757 72.5718 10.1716 73.2696 10.1716C73.7508 10.1716 74.2297 10.228 74.7065 10.3407C75.1833 10.4534 75.6189 10.6398 76.0134 10.8998C76.4078 11.1556 76.7242 11.5045 76.9626 11.9466C77.2054 12.3887 77.3267 12.9414 77.3267 13.6045V20.2883H75.0641V18.9165H74.9861C74.8431 19.1939 74.6415 19.4539 74.3814 19.6967C74.1257 19.9351 73.8028 20.128 73.4127 20.2753C73.0269 20.4184 72.5739 20.4899 72.0538 20.4899ZM72.665 18.7604C73.1374 18.7604 73.547 18.6672 73.8938 18.4809C74.2406 18.2901 74.5071 18.0387 74.6935 17.7267C74.8842 17.4146 74.9796 17.0743 74.9796 16.7059V15.5291C74.9059 15.5897 74.7802 15.6461 74.6025 15.6981C74.4291 15.7501 74.2341 15.7956 74.0173 15.8346C73.8006 15.8737 73.5861 15.9083 73.3737 15.9387C73.1613 15.969 72.9771 15.995 72.821 16.0167C72.4699 16.0644 72.1557 16.1424 71.8783 16.2508C71.6009 16.3591 71.382 16.5108 71.2216 16.7059C71.0612 16.8966 70.981 17.1437 70.981 17.4471C70.981 17.8805 71.1392 18.2078 71.4556 18.4288C71.7721 18.6499 72.1752 18.7604 72.665 18.7604Z" fill="#1641FE"/>
<path d="M60.3771 14.4368V20.2883H58.0234V10.3017L60.273 10.3017V11.9986H60.3901C60.6198 11.4395 60.9861 10.9952 61.4889 10.6658C61.996 10.3363 62.6223 10.1716 63.3679 10.1716C64.0571 10.1716 64.6574 10.319 65.1688 10.6137C65.6847 10.9085 66.0834 11.3354 66.3652 11.8946C66.6512 12.4537 66.7921 13.1321 66.7878 13.9296V20.2883H64.4342V14.2937C64.4342 13.6262 64.2608 13.1039 63.914 12.7268C63.5716 12.3497 63.097 12.1612 62.4901 12.1612C62.0784 12.1612 61.7121 12.2522 61.3913 12.4342C61.0749 12.612 60.8257 12.8699 60.6436 13.2079C60.4659 13.546 60.3771 13.9556 60.3771 14.4368Z" fill="#1641FE"/>
<path d="M53.2495 16.0883V10.3018H55.6031V20.2884H53.321V18.5135H53.217C52.9916 19.0726 52.621 19.5299 52.1052 19.8853C51.5937 20.2407 50.963 20.4185 50.2132 20.4185C49.5587 20.4185 48.98 20.2733 48.4772 19.9828C47.9787 19.6881 47.5886 19.2612 47.3069 18.702C47.0251 18.1385 46.8843 17.458 46.8843 16.6605V10.3018H49.2379V16.2964C49.2379 16.9292 49.4113 17.432 49.758 17.8048C50.1048 18.1775 50.5599 18.3639 51.1234 18.3639C51.4702 18.3639 51.8061 18.2794 52.1312 18.1103C52.4563 17.9413 52.7228 17.6899 52.9309 17.3561C53.1433 17.0181 53.2495 16.5954 53.2495 16.0883Z" fill="#1641FE"/>
<path d="M36.6177 20.2887V6.97314H39.0298V18.2667H44.8944V20.2887H36.6177Z" fill="#1641FE"/>
</svg>
