<svg width="28" height="28" viewBox="0 0 28 28" fill="none" xmlns="http://www.w3.org/2000/svg">
<path d="M4.70536 10.0961C10.5231 5.94667 17.6239 11.8927 14.1161 18.6516L26.5485 8.8043C27.137 10.3341 27.4633 11.9945 27.4633 13.7317C27.4633 21.3155 21.3155 27.4633 13.7317 27.4633C9.10994 27.4633 5.02461 25.1778 2.53595 21.6777C0.643894 18.1469 0.463235 13.7865 4.70536 10.0961Z" fill="#1641FE"/>
<path d="M13.7317 0C17.0314 0 20.0593 1.16397 22.4272 3.10363L9.02631 7.01633C6.12688 7.58806 0.540164 9.87447 0.187738 15.9979C0.06528 15.2606 0 14.5037 0 13.7317C0 6.14788 6.14788 0 13.7317 0Z" fill="#1641FE"/>
</svg>
