<svg width="18" height="18" viewBox="0 0 18 18" fill="none" xmlns="http://www.w3.org/2000/svg">
<path d="M7.87495 3.375V14.625C7.87495 14.7742 7.81569 14.9173 7.7102 15.0227C7.60471 15.1282 7.46164 15.1875 7.31245 15.1875C7.16327 15.1875 7.0202 15.1282 6.91471 15.0227C6.80922 14.9173 6.74995 14.7742 6.74995 14.625V9.5625H3.04519L4.33542 10.852C4.44097 10.9576 4.50027 11.1007 4.50027 11.25C4.50027 11.3993 4.44097 11.5424 4.33542 11.648C4.22987 11.7535 4.08672 11.8128 3.93745 11.8128C3.78819 11.8128 3.64503 11.7535 3.53949 11.648L1.28949 9.39797C1.23719 9.34573 1.1957 9.28369 1.16739 9.2154C1.13908 9.14712 1.12451 9.07392 1.12451 9C1.12451 8.92608 1.13908 8.85288 1.16739 8.7846C1.1957 8.71631 1.23719 8.65427 1.28949 8.60203L3.53949 6.35203C3.64503 6.24648 3.78819 6.18719 3.93745 6.18719C4.08672 6.18719 4.22987 6.24648 4.33542 6.35203C4.44097 6.45758 4.50027 6.60073 4.50027 6.75C4.50027 6.89927 4.44097 7.04242 4.33542 7.14797L3.04519 8.4375H6.74995V3.375C6.74995 3.22582 6.80922 3.08274 6.91471 2.97725C7.0202 2.87176 7.16327 2.8125 7.31245 2.8125C7.46164 2.8125 7.60471 2.87176 7.7102 2.97725C7.81569 3.08274 7.87495 3.22582 7.87495 3.375ZM16.7104 8.60203L14.4604 6.35203C14.3549 6.24648 14.2117 6.18719 14.0625 6.18719C13.9132 6.18719 13.77 6.24648 13.6645 6.35203C13.5589 6.45758 13.4996 6.60073 13.4996 6.75C13.4996 6.89927 13.5589 7.04242 13.6645 7.14797L14.9547 8.4375H11.25V3.375C11.25 3.22582 11.1907 3.08274 11.0852 2.97725C10.9797 2.87176 10.8366 2.8125 10.6875 2.8125C10.5383 2.8125 10.3952 2.87176 10.2897 2.97725C10.1842 3.08274 10.125 3.22582 10.125 3.375V14.625C10.125 14.7742 10.1842 14.9173 10.2897 15.0227C10.3952 15.1282 10.5383 15.1875 10.6875 15.1875C10.8366 15.1875 10.9797 15.1282 11.0852 15.0227C11.1907 14.9173 11.25 14.7742 11.25 14.625V9.5625H14.9547L13.6645 10.852C13.5589 10.9576 13.4996 11.1007 13.4996 11.25C13.4996 11.3993 13.5589 11.5424 13.6645 11.648C13.77 11.7535 13.9132 11.8128 14.0625 11.8128C14.2117 11.8128 14.3549 11.7535 14.4604 11.648L16.7104 9.39797C16.7627 9.34573 16.8042 9.28369 16.8325 9.2154C16.8608 9.14712 16.8754 9.07392 16.8754 9C16.8754 8.92608 16.8608 8.85288 16.8325 8.7846C16.8042 8.71631 16.7627 8.65427 16.7104 8.60203Z" fill="#475569"/>
</svg>
